<svg width="97" height="25" viewBox="0 0 97 25" fill="none" xmlns="http://www.w3.org/2000/svg">
<path d="M26.04 20.3C30.02 20.3 32.06 17.66 32.6 15.48L30.02 14.7C29.64 16.02 28.46 17.6 26.04 17.6C23.76 17.6 21.64 15.94 21.64 12.92C21.64 9.7 23.88 8.18 26 8.18C28.46 8.18 29.56 9.68 29.9 11.04L32.5 10.22C31.94 7.92 29.92 5.52 26 5.52C22.2 5.52 18.78 8.4 18.78 12.92C18.78 17.44 22.08 20.3 26.04 20.3ZM33.82 17.32C33.82 18.86 35.1 20.28 37.2 20.28C38.66 20.28 39.6 19.6 40.1 18.82C40.1 19.2 40.14 19.74 40.2 20H42.64C42.58 19.66 42.52 18.96 42.52 18.44V13.6C42.52 11.62 41.36 9.86 38.24 9.86C35.6 9.86 34.18 11.56 34.02 13.1L36.38 13.6C36.46 12.74 37.1 12 38.26 12C39.38 12 39.92 12.58 39.92 13.28C39.92 13.62 39.74 13.9 39.18 13.98L36.76 14.34C35.12 14.58 33.82 15.56 33.82 17.32ZM37.76 18.3C36.9 18.3 36.48 17.74 36.48 17.16C36.48 16.4 37.02 16.02 37.7 15.92L39.92 15.58V16.02C39.92 17.76 38.88 18.3 37.76 18.3ZM51.2013 10.12C51.0013 10.1 50.8013 10.08 50.5813 10.08C49.7413 10.08 48.3813 10.32 47.7813 11.62V10.16H45.2013V20H47.8613V15.5C47.8613 13.38 49.0413 12.72 50.4013 12.72C50.6413 12.72 50.9013 12.74 51.2013 12.8V10.12ZM54.9147 13.96C54.9747 13.06 55.7347 12.02 57.1147 12.02C58.6347 12.02 59.2747 12.98 59.3147 13.96H54.9147ZM59.5747 16.52C59.2547 17.4 58.5747 18.02 57.3347 18.02C56.0147 18.02 54.9147 17.08 54.8547 15.78H61.8947C61.8947 15.74 61.9347 15.34 61.9347 14.96C61.9347 11.8 60.1147 9.86 57.0747 9.86C54.5547 9.86 52.2347 11.9 52.2347 15.04C52.2347 18.36 54.6147 20.3 57.3147 20.3C59.7347 20.3 61.2947 18.88 61.7947 17.18L59.5747 16.52Z" fill="#5F5E7B"/>
<path d="M76.3294 20V5.82H73.5694V15.2L67.6694 5.82H64.2294V20H66.9894V9.94L73.4294 20H76.3294ZM81.2428 13.96C81.3028 13.06 82.0628 12.02 83.4428 12.02C84.9628 12.02 85.6028 12.98 85.6428 13.96H81.2428ZM85.9028 16.52C85.5828 17.4 84.9028 18.02 83.6628 18.02C82.3428 18.02 81.2428 17.08 81.1828 15.78H88.2228C88.2228 15.74 88.2628 15.34 88.2628 14.96C88.2628 11.8 86.4428 9.86 83.4028 9.86C80.8828 9.86 78.5628 11.9 78.5628 15.04C78.5628 18.36 80.9428 20.3 83.6428 20.3C86.0628 20.3 87.6228 18.88 88.1228 17.18L85.9028 16.52ZM93.6375 7.22H91.2375V8.6C91.2375 9.48 90.7575 10.16 89.7175 10.16H89.2175V12.52H90.9975V17.1C90.9975 19 92.1975 20.14 94.1175 20.14C94.8975 20.14 95.3775 20 95.6175 19.9V17.7C95.4775 17.74 95.1175 17.78 94.7975 17.78C94.0375 17.78 93.6375 17.5 93.6375 16.64V12.52H95.6175V10.16H93.6375V7.22Z" fill="#8989A0"/>
<path d="M13.812 17.2218C15.0871 18.8914 14.7918 21.3902 12.8048 21.9877C12.2268 22.1615 11.6321 22.282 11.0276 22.3461C9.17078 22.5432 7.29718 22.2011 5.62151 21.3592C3.94584 20.5172 2.53583 19.2095 1.55303 17.5856C0.570221 15.9618 0.0543501 14.0876 0.0645088 12.1777C0.0746675 10.2679 0.610444 8.39949 1.61047 6.78671C2.61049 5.17392 4.03432 3.88191 5.71885 3.0587C7.40338 2.23548 9.28051 1.91434 11.1351 2.13206C11.7389 2.20293 12.3323 2.32997 12.9084 2.51021C14.8889 3.12983 15.1576 5.6317 13.8648 7.28709L11.8517 9.8649C10.7676 11.2532 10.7571 13.2214 11.8264 14.6216L13.812 17.2218Z" fill="#2D97CD"/>
</svg>
