<svg width="10" height="10" viewBox="0 0 10 10" fill="none" xmlns="http://www.w3.org/2000/svg">
<g clip-path="url(#clip0_34_22)">
<path d="M9.83171 6.70686C9.71964 6.59471 9.58333 6.53859 9.42314 6.53859H6.63459L5.8173 7.35586C5.58491 7.58018 5.31249 7.69239 5 7.69239C4.68757 7.69239 4.41506 7.58033 4.1827 7.35586L3.3714 6.53859H0.576916C0.416689 6.53859 0.28048 6.59477 0.168267 6.70686C0.056075 6.819 0 6.95523 0 7.11556V9.03857C0 9.19883 0.056075 9.33504 0.168267 9.44721C0.280459 9.55936 0.416668 9.61539 0.576916 9.61539H9.42316C9.58335 9.61539 9.71966 9.55936 9.83173 9.44721C9.94396 9.33504 10 9.19883 10 9.03857V7.11556C10 6.95523 9.94396 6.819 9.83171 6.70686ZM7.57823 8.73207C7.50201 8.8082 7.41183 8.84624 7.30766 8.84624C7.20349 8.84624 7.11344 8.8082 7.03724 8.73207C6.96117 8.65594 6.92313 8.56582 6.92313 8.46172C6.92313 8.35756 6.96117 8.26731 7.03724 8.1913C7.11344 8.1151 7.20349 8.07698 7.30766 8.07698C7.41183 8.07698 7.50199 8.1151 7.57823 8.1913C7.65428 8.26729 7.69233 8.35754 7.69233 8.46172C7.69233 8.5658 7.65428 8.65594 7.57823 8.73207ZM9.11658 8.73207C9.04051 8.8082 8.95034 8.84624 8.84614 8.84624C8.74199 8.84624 8.65188 8.8082 8.57572 8.73207C8.49967 8.65594 8.46164 8.56582 8.46164 8.46172C8.46164 8.35756 8.49967 8.26731 8.57572 8.1913C8.65186 8.1151 8.74197 8.07698 8.84614 8.07698C8.95032 8.07698 9.04049 8.1151 9.11658 8.1913C9.19272 8.26729 9.23082 8.35754 9.23082 8.46172C9.23082 8.5658 9.19278 8.65594 9.11658 8.73207Z" fill="#5F5E7B"/>
<path d="M4.7296 6.80899C4.80176 6.88504 4.89189 6.92309 5.00002 6.92309C5.10823 6.92309 5.19826 6.88504 5.27044 6.80899L7.96278 4.11662C8.08695 4.00045 8.11505 3.8602 8.04691 3.69594C7.97893 3.53973 7.86069 3.46162 7.69236 3.46153H6.15385V0.769211C6.15385 0.665059 6.11573 0.574906 6.03975 0.498792C5.96355 0.422657 5.87344 0.384579 5.76933 0.384579H4.23071C4.1266 0.384579 4.03645 0.422657 3.96029 0.498792C3.8842 0.574906 3.84612 0.665038 3.84612 0.769211V3.46155H2.30766C2.13931 3.46155 2.02118 3.53975 1.95306 3.69596C1.88499 3.86016 1.91301 4.00047 2.03724 4.11665L4.7296 6.80899Z" fill="#5F5E7B"/>
</g>
<defs>
<clipPath id="clip0_34_22">
<rect width="10" height="10" fill="white"/>
</clipPath>
</defs>
</svg>
