<svg width="13" height="14" viewBox="0 0 13 14" fill="none" xmlns="http://www.w3.org/2000/svg">
<path fill-rule="evenodd" clip-rule="evenodd" d="M8.90957 9.00406C9.23266 8.95591 9.64888 8.94654 10.2202 8.94485C9.81384 9.93469 8.95408 10.6821 7.8954 10.9316L7.89298 10.9322C7.89825 10.5193 7.91298 10.2008 7.95322 9.94362C8.00586 9.60714 8.09589 9.42122 8.23029 9.2862C8.36784 9.14803 8.55865 9.05637 8.90957 9.00406ZM8.07222 2.31117C7.01878 2.06294 5.92245 2.06294 4.86901 2.31117C3.3477 2.66964 2.15985 3.86289 1.803 5.39111C1.5559 6.44934 1.5559 7.55066 1.803 8.60889C2.15985 10.1371 3.3477 11.3304 4.86901 11.6888C5.75383 11.8973 6.66891 11.9307 7.56341 11.7889C7.73388 11.7619 7.9036 11.7286 8.07222 11.6888C9.59353 11.3304 10.7814 10.1371 11.1382 8.60889C11.3853 7.55066 11.3853 6.44934 11.1382 5.39111C10.7814 3.86289 9.59353 2.66964 8.07222 2.31117ZM4.61234 5.4444C4.61234 5.27257 4.751 5.13328 4.92205 5.13328H6.4706C6.64165 5.13328 6.78031 5.27257 6.78031 5.4444C6.78031 5.61622 6.64165 5.75551 6.4706 5.75551H4.92205C4.751 5.75551 4.61234 5.61622 4.61234 5.4444ZM4.61234 6.99999C4.61234 6.82816 4.751 6.68887 4.92205 6.68887H7.50297C7.67402 6.68887 7.81268 6.82816 7.81268 6.99999C7.81268 7.17181 7.67402 7.3111 7.50297 7.3111H4.92205C4.751 7.3111 4.61234 7.17181 4.61234 6.99999Z" fill="#5F5E7B"/>
</svg>
