<svg width="79" height="80" viewBox="0 0 79 80" fill="none" xmlns="http://www.w3.org/2000/svg">
<path d="M43.3025 5.21195C42.8175 5.69694 42.031 5.69694 41.5459 5.21195C41.0609 4.72695 41.0609 3.94054 41.5459 3.45539C42.0309 2.97039 42.8175 2.97039 43.3025 3.45539C43.7876 3.94039 43.7876 4.72679 43.3025 5.21195Z" fill="#73D4FF"/>
<path d="M31.9898 21.1586C30.3886 21.1588 28.7889 20.5653 27.5594 19.3844C25.2236 17.1408 24.9313 13.5032 26.8795 10.9231C27.0584 10.6862 27.2556 10.4597 27.4656 10.2498C27.9234 9.7925 28.6653 9.79234 29.1229 10.2503C29.5804 10.708 29.5803 11.45 29.1226 11.9075C28.9889 12.0411 28.8634 12.1851 28.7498 12.3356C27.5167 13.9687 27.7028 16.2724 29.1829 17.6941C30.7062 19.1571 33.1265 19.1968 34.6935 17.7847C35.5294 17.0313 36.0058 15.9985 36.0349 14.877C36.0641 13.7545 35.6435 12.6998 34.8509 11.9073C34.3932 11.4495 34.3932 10.7076 34.8509 10.25L38.7122 6.38863C39.1699 5.93114 39.9119 5.93114 40.3696 6.38863C40.8272 6.84644 40.8272 7.5883 40.3696 8.04595L37.2619 11.1536C38.0225 12.2557 38.4135 13.5648 38.3779 14.9379C38.3319 16.7084 37.5807 18.3379 36.2626 19.5258C35.0526 20.616 33.5206 21.1586 31.9898 21.1586V21.1586Z" fill="#73D4FF"/>
<path d="M54.7468 80C56.3368 80 57.5513 78.595 57.3405 77.0192C55.8838 66.1292 46.5569 57.7299 35.2681 57.7299C23.9793 57.7299 14.6524 66.1291 13.1957 77.0191C12.9849 78.595 14.1994 79.9998 15.7894 79.9998H54.7468V80Z" fill="#73D4FF"/>
<path d="M44.1203 72.4126L41.7274 66.8341L45.2256 66.3241C46.2916 68.7268 49.7798 71.772 56.2965 72.651C53.2603 63.9627 44.9922 57.7298 35.2681 57.7298C25.544 57.7298 17.2758 63.9625 14.2397 72.651C20.7562 71.772 24.2445 68.7268 25.3106 66.3241L28.8088 66.8341L26.4159 72.4126C26.0935 73.1641 26.3641 74.0437 27.0613 74.471C29.2985 75.8422 31.1589 78.657 31.83 80H38.7063C39.3774 78.6572 41.2379 75.8424 43.475 74.471C44.1722 74.0437 44.4428 73.1641 44.1203 72.4126V72.4126Z" fill="#2D97CD"/>
<path d="M34.0957 70.7387H36.4395V79.9999H34.0957V70.7387Z" fill="#73D4FF"/>
<path d="M9.7577 53.5C15.1467 53.5 19.5154 49.9283 19.5154 45.5224C19.5154 41.1165 15.1467 37.5448 9.7577 37.5448C4.36867 37.5448 0 41.1165 0 45.5224C0 49.9283 4.36867 53.5 9.7577 53.5Z" fill="#FFD3BD"/>
<path d="M60.7777 53.5C66.1667 53.5 70.5354 49.9283 70.5354 45.5224C70.5354 41.1165 66.1667 37.5448 60.7777 37.5448C55.3887 37.5448 51.02 41.1165 51.02 45.5224C51.02 49.9283 55.3887 53.5 60.7777 53.5Z" fill="#FFBE9D"/>
<path d="M63.1773 47.4292C63.1773 61.2961 50.6816 70.7386 35.2676 70.7386C19.8535 70.7386 7.35791 61.2959 7.35791 47.4292C7.35791 33.5625 19.8534 22.3211 35.2676 22.3211C50.6818 22.3211 63.1773 33.5624 63.1773 47.4292V47.4292Z" fill="#FFD3BD"/>
<path d="M35.268 70.7387C39.1844 70.7387 42.9115 70.1279 46.294 68.9911C9.12025 65.0638 14.9341 35.8648 26.6792 23.5344C15.4681 26.7934 7.3584 36.2586 7.3584 47.4293C7.3584 61.296 19.8539 70.7387 35.268 70.7387V70.7387Z" fill="#FFBE9D"/>
<path d="M21.0795 56.1699C23.9709 56.1699 26.3148 54.3033 26.3148 52.0008C26.3148 49.6983 23.9709 47.8318 21.0795 47.8318C18.1882 47.8318 15.8442 49.6983 15.8442 52.0008C15.8442 54.3033 18.1882 56.1699 21.0795 56.1699Z" fill="#EDA1AB"/>
<path d="M49.456 56.1699C52.3474 56.1699 54.6913 54.3033 54.6913 52.0008C54.6913 49.6983 52.3474 47.8318 49.456 47.8318C46.5646 47.8318 44.2207 49.6983 44.2207 52.0008C44.2207 54.3033 46.5646 56.1699 49.456 56.1699Z" fill="#EDA1AB"/>
<path d="M24.1309 49.1595C23.4837 49.1595 22.959 48.6349 22.959 47.9876V45.8476C22.959 45.2003 23.4837 44.6757 24.1309 44.6757C24.778 44.6757 25.3027 45.2003 25.3027 45.8476V47.9876C25.3027 48.6348 24.778 49.1595 24.1309 49.1595Z" fill="#4E5660"/>
<path d="M46.4053 49.1595C45.7581 49.1595 45.2334 48.6349 45.2334 47.9876V45.8476C45.2334 45.2003 45.7581 44.6757 46.4053 44.6757C47.0525 44.6757 47.5771 45.2003 47.5771 45.8476V47.9876C47.5771 48.6348 47.0525 49.1595 46.4053 49.1595Z" fill="#4E5660"/>
<path d="M24.1307 45.254C23.2118 45.254 22.3113 45.0047 21.5265 44.5333C20.9718 44.2001 20.7922 43.4803 21.1255 42.9254C21.4588 42.3706 22.1786 42.1911 22.7335 42.5245C23.1537 42.7768 23.6368 42.9104 24.1305 42.9104C24.6243 42.9104 25.1074 42.777 25.5276 42.5245C26.0824 42.1908 26.8023 42.3707 27.1357 42.9253C27.469 43.4801 27.2896 44.1999 26.7348 44.5333C25.9502 45.0047 25.0496 45.254 24.1307 45.254Z" fill="#4E5660"/>
<path d="M38.2036 50.4336C38.0559 50.4336 37.9057 50.4055 37.7606 50.3461C36.0457 49.6452 33.4593 49.6511 32.3523 49.6453H32.3315C31.6844 49.6453 31.1597 49.1208 31.1597 48.4735C31.1597 47.8261 31.6844 47.3016 32.3315 47.3016H32.3523C33.6993 47.2976 36.5064 47.3015 38.6475 48.1768C39.2465 48.4216 39.5337 49.1058 39.2887 49.7048C39.1032 50.1587 38.6654 50.4336 38.2036 50.4336V50.4336Z" fill="#4E5660"/>
<path d="M13.9505 20.1367C17.4481 20.186 19.5959 21.261 22.0895 22.927C22.6435 23.2973 23.3718 23.2567 23.8855 22.8323C30.0609 17.7302 41.9774 14.8466 50.3313 14.7804C56.7813 14.7293 62.2129 19.9367 62.1904 26.3867C62.1682 32.7557 56.9983 37.912 50.624 37.912C44.6053 37.912 29.5224 36.8452 21.0912 32.2776C20.4832 31.9482 19.7301 32.0902 19.2689 32.6054C17.8998 34.1344 15.9114 35.0969 13.6972 35.0969C9.59586 35.0969 6.26543 31.7965 6.21683 27.7067C6.16668 23.4739 9.71789 20.0771 13.9505 20.1367V20.1367Z" fill="#CB9D82"/>
<path d="M43.8761 32.9261C39.3766 32.9261 33.9461 31.8936 31.9901 31.1451C31.3856 30.9138 31.0833 30.2362 31.3145 29.6316C31.5459 29.0273 32.2234 28.7249 32.8278 28.956C35.0212 29.7955 42.2539 30.9971 46.3829 30.4351C47.0243 30.3465 47.6148 30.7969 47.7021 31.4382C47.7895 32.0796 47.3404 32.6702 46.699 32.7574C45.837 32.8747 44.8795 32.9261 43.8761 32.9261V32.9261Z" fill="#B7856B"/>
<path d="M53.6381 23.4333C53.2995 23.4333 52.9637 23.2874 52.732 23.0055C51.2862 21.2461 47.6534 21.7177 46.2856 21.8952C45.6443 21.9805 45.0559 21.5257 44.9728 20.8838C44.8895 20.2421 45.3423 19.6542 45.9842 19.571C47.8657 19.3266 52.2726 18.7549 54.5428 21.5175C54.9537 22.0175 54.8814 22.7561 54.3814 23.1671C54.1634 23.3461 53.8998 23.4333 53.6381 23.4333Z" fill="#B7856B"/>
<path d="M68.5375 11.8715C68.772 12.5161 68.4398 13.2289 67.7951 13.4634C67.1506 13.6979 66.4378 13.3656 66.2031 12.7211C65.9686 12.0765 66.3009 11.3637 66.9455 11.1292C67.5901 10.8947 68.3028 11.227 68.5375 11.8715Z" fill="#2D97CD"/>
<path d="M72.4208 32.5616C70.1149 32.5616 67.9086 31.3105 66.7729 29.1694C66.634 28.9076 66.5121 28.6332 66.4104 28.3538C66.189 27.7456 66.5026 27.0732 67.1107 26.8518C67.7189 26.6306 68.3913 26.9438 68.6127 27.5521C68.6774 27.7302 68.755 27.9049 68.8433 28.0713C69.8024 29.879 71.9687 30.6838 73.8828 29.9433C75.8525 29.181 76.9115 27.0042 76.2937 24.9873C75.9642 23.9112 75.2296 23.0431 74.2253 22.5426C73.2201 22.0419 72.0867 21.9773 71.0333 22.3608C70.4252 22.5816 69.7527 22.2686 69.5313 21.6605L67.6636 16.529C67.4422 15.9207 67.7558 15.2484 68.3641 15.027C68.9721 14.8059 69.6446 15.1191 69.8661 15.7273L71.3692 19.8571C72.6895 19.6338 74.0412 19.8325 75.2706 20.445C76.8557 21.235 78.0151 22.6044 78.5348 24.3012C79.5105 27.4873 77.8387 30.9257 74.7286 32.1293C73.9725 32.4219 73.1909 32.5616 72.4208 32.5616V32.5616Z" fill="#2D97CD"/>
<path d="M2.60287 22.3208C3.28883 22.3208 3.8449 21.7647 3.8449 21.0788C3.8449 20.3928 3.28883 19.8367 2.60287 19.8367C1.91692 19.8367 1.36084 20.3928 1.36084 21.0788C1.36084 21.7647 1.91692 22.3208 2.60287 22.3208Z" fill="#2D97CD"/>
<path d="M4.29416 17.6035C4.16104 17.6035 4.02573 17.5807 3.89339 17.5326C3.28512 17.3112 2.97168 16.6387 3.19293 16.0305L4.69603 11.9007C3.54089 11.2233 2.6334 10.2022 2.08544 8.94266C1.37889 7.31846 1.37108 5.52426 2.06357 3.89053C3.36386 0.822602 6.85491 -0.737066 10.011 0.340577C13.0761 1.38681 14.8783 4.56006 14.2029 7.72174C14.1414 8.01064 14.0584 8.29923 13.9564 8.57954C13.735 9.18781 13.0625 9.50078 12.4544 9.27984C11.8463 9.05844 11.5327 8.38595 11.7541 7.77783C11.8191 7.59939 11.8717 7.41596 11.9109 7.23268C12.3384 5.23067 11.1963 3.22148 9.25395 2.55852C7.25553 1.8765 5.04462 2.8632 4.22151 4.80521C3.7823 5.84145 3.78698 6.97878 4.23448 8.00752C4.68244 9.03719 5.50931 9.81531 6.56257 10.1986C6.8546 10.305 7.09257 10.5228 7.22382 10.8045C7.35506 11.0862 7.36928 11.4086 7.26288 11.7006L5.3954 16.8321C5.22228 17.3079 4.77275 17.6035 4.29416 17.6035V17.6035Z" fill="#2D97CD"/>
</svg>
