<svg width="14" height="14" viewBox="0 0 14 14" fill="none" xmlns="http://www.w3.org/2000/svg">
<path d="M6.22746 2.125V5.0512H2.0144C2.4594 3.6825 3.58873 2.63333 5.00547 2.30082C5.40815 2.20631 5.81705 2.1477 6.22746 2.125Z" fill="#5F5E7B"/>
<path d="M7.00652 2.125V8.16925H11.4025C11.5573 7.24678 11.5277 6.30115 11.3135 5.38756C10.9544 3.85596 9.75923 2.66008 8.22851 2.30082C7.82583 2.20631 7.41693 2.1477 7.00652 2.125Z" fill="#5F5E7B"/>
<path d="M11.2196 8.94877H7.00652V11.875C7.41692 11.8523 7.82583 11.7937 8.22851 11.6992C9.64526 11.3667 10.7746 10.3175 11.2196 8.94877Z" fill="#5F5E7B"/>
<path d="M6.22746 11.875V5.83072H1.83145C1.67662 6.7532 1.7063 7.69884 1.92048 8.61244C2.27954 10.144 3.47475 11.3399 5.00547 11.6992C5.40815 11.7937 5.81705 11.8523 6.22746 11.875Z" fill="#5F5E7B"/>
</svg>
