<svg xmlns="http://www.w3.org/2000/svg" version="1.1" xmlns:xlink="http://www.w3.org/1999/xlink" xmlns:svgjs="http://svgjs.com/svgjs" width="512" height="512" x="0" y="0" viewBox="0 0 512 512" style="enable-background:new 0 0 512 512" xml:space="preserve" class=""><g><g xmlns="http://www.w3.org/2000/svg"><path d="m241.958 512h-10.21c-5.899 0-10.681-4.782-10.681-10.681v-143.104h31.572v143.105c-.001 5.898-4.783 10.68-10.681 10.68z" fill="#26a6fe" data-original="#26a6fe" class=""></path><path d="m472.21 264.675 12.659-84.89c2.308-15.479-2.607-31.155-13.334-42.55-33.846-35.955-91.621-96.186-240.183-123.979-10.91-2.041-37.941-4.439-52.147-5.616-4.879-.404-9.055 3.447-9.055 8.342v18.444c0 4.429 3.449 8.108 7.87 8.355 13.914.778 45.847 4.429 92.359 20.775z" fill="#b3dafe" data-original="#b3dafe"></path><path d="m471.535 137.236c-33.846-35.955-91.621-96.186-240.183-123.979-1.443-.27-3.175-.546-5.115-.825 126.693 30.68 178.893 91.36 210.375 124.804 10.727 11.395 15.642 27.071 13.334 42.55l-7.201 48.288 29.465 36.602 12.659-84.89c2.309-15.479-2.606-31.155-13.334-42.55z" fill="#92d2fc" data-original="#92d2fc"></path><path d="m388.349.31-72.924 16.413c-18.133 4.081-33.088 16.842-39.971 34.107l-24.318 60.997c-2.863 7.18-10.64 11.109-18.106 9.106-14.469-3.882-30.096-1.946-43.363 5.758-17.552 10.193-28.353 28.956-28.353 49.253v96.353c0 25.878 12.184 50.246 32.887 65.773l26.874 20.155 80.317 6.444v-208.306l102.177-113.869v-30.009c0-7.998-7.417-13.931-15.22-12.175z" fill="#fdb4ba" data-original="#fdb4ba"></path><g><path d="m368.646 18.853v23.641l4.556 33.842 30.367-33.842v-30.009c0-7.998-7.418-13.932-15.22-12.175l-28.913 6.507c5.21 1.423 9.21 6.167 9.21 12.036z" fill="#fe99a0" data-original="#fe99a0"></path></g><path d="m472.214 264.674-86.638-3.132-84.186-105.181 22.715-78.047c3.626-12.445 13.794-21.881 26.466-24.57l68.559-14.556 22.643-4.801c7.479-1.587 14.515 4.11 14.515 11.754v16.843c0 4.904-2.977 9.323-7.531 11.147l-56.392 22.716c-2.844 1.143-4.749 3.832-4.893 6.892l-2.174 46.502c-.175 3.77 1.731 7.345 4.955 9.313l34.8 21.201c29.288 17.833 47.161 49.635 47.161 83.919z" fill="#26a6fe" data-original="#26a6fe" class=""></path><g><path d="m472.214 264.674-36.335-16.545c-4.739-27.753-21.242-52.457-45.75-67.374l-34.46-20.995c-3.441-2.091-5.46-5.903-5.275-9.921l1.854-39.714c.33-6.943 4.677-13.073 11.126-15.669l50.458-20.326c4.553-1.823 7.531-6.243 7.531-11.147v-16.841c0-2.617-.845-4.996-2.235-6.954l22.643-4.801c7.479-1.587 14.515 4.11 14.515 11.754v16.843c0 4.904-2.977 9.323-7.531 11.147l-56.392 22.716c-2.844 1.143-4.749 3.832-4.893 6.892l-2.174 46.502c-.175 3.77 1.731 7.345 4.955 9.313l34.8 21.201c29.29 17.833 47.163 49.635 47.163 83.919z" fill="#0593fc" data-original="#0593fc"></path></g><path d="m472.214 264.674v58.751c0 42.114-16.05 82.651-44.875 113.361l-62.419 66.498c-10.909 11.62-29.35 11.62-40.26 0l-62.419-66.498c-28.824-30.71-44.875-71.247-44.875-113.361v-59.823c0-33.708 17.276-65.056 45.771-83.064l25.538-16.143 12.713-8.035s63.82 10.724 81.302 88.42c.278 1.205.536 2.431.783 3.667.752 3.74 3.832 6.191 7.253 6.48l.144.01c1.556.103 3.173-.237 4.667-1.102.433-.247.876-.505 1.339-.742 13.589-7.323 39.169-13.257 75.338 11.581z" fill="#fe646f" data-original="#fe646f" class=""></path><g fill="#fd4755"><path d="m390.727 254.929-18.018-.258c-12.64 0-23.808-8.499-26.908-20.748-11.363-44.967-37.529-59.575-57.123-69.527l12.713-8.035s65.818 11.064 82.085 92.088c.751 3.739 3.831 6.191 7.251 6.48z" fill="#fd4755" data-original="#fd4755"></path><path d="m435.878 248.13 1.41 75.296c0 42.112-16.048 82.647-44.869 113.358l-62.422 66.503c-.845.9-1.739 1.721-2.668 2.482 11.056 9.058 27.528 8.236 37.591-2.482l62.422-66.503c28.821-30.711 44.869-71.246 44.869-113.358v-58.75c-13.644-9.373-25.777-14.357-36.333-16.546z" fill="#fd4755" data-original="#fd4755"></path></g><path d="m240.392 271.561h-188.708c-19.795 0-31.782-21.862-21.139-38.552l94.354-147.962c9.856-15.455 32.423-15.455 42.279 0l94.354 147.962c10.643 16.69-1.345 38.552-21.14 38.552z" fill="#ffe177" data-original="#ffe177"></path><path d="m261.532 233.009-94.354-147.963c-9.856-15.455-32.423-15.455-42.279 0l-5.013 7.862c7.167.766 14.054 4.574 18.433 11.44l80.525 128.661c10.643 16.69-1.345 38.552-21.14 38.552h42.689c19.794 0 31.782-21.862 21.139-38.552z" fill="#ffd15b" data-original="#ffd15b"></path><path d="m393.303 360.491c2.308 3.595 1.267 8.375-2.328 10.683-1.288.824-2.74 1.226-4.162 1.226-2.544 0-5.037-1.257-6.511-3.554l-6.943-10.817-21.747 40.733c-1.391 2.606-4.069 4.09-6.83 4.09-1.226 0-2.472-.288-3.626-.907-3.77-2.019-5.192-6.696-3.183-10.456l27.341-51.21 17.379-95.498c.278 1.205.536 2.431.783 3.667.752 3.74 3.832 6.191 7.253 6.48l.144.01c1.556.103 3.173-.237 4.667-1.102.433-.247.876-.505 1.339-.742l-15.988 88.06z" fill="#fd4755" data-original="#fd4755"></path><circle cx="146.038" cy="227.523" fill="#fe646f" r="7.705" data-original="#fe646f" class=""></circle><g><path d="m146.038 198.116c-4.268 0-7.726-3.459-7.726-7.726v-56.967c0-4.268 3.459-7.726 7.726-7.726 4.268 0 7.726 3.459 7.726 7.726v56.967c.001 4.267-3.458 7.726-7.726 7.726z" fill="#fe646f" data-original="#fe646f" class=""></path></g></g></g></svg>