<svg width="35" height="35" viewBox="0 0 35 35" fill="none" xmlns="http://www.w3.org/2000/svg">
<g clip-path="url(#clip0_36_25)">
<path d="M31.4936 32.2598H3.50647V17.0657C3.50647 16.2364 4.17872 15.5641 5.00805 15.5641H29.992C30.8213 15.5641 31.4936 16.2364 31.4936 17.0657V32.2598Z" fill="#2D97CD"/>
<path d="M29.9919 15.5641H27.175C28.0043 15.5641 28.6766 16.2364 28.6766 17.0657V32.2598H31.4935V17.0657C31.4935 16.2364 30.8212 15.5641 29.9919 15.5641Z" fill="#217AA8"/>
<path d="M33.4984 35H1.50158C0.672246 35 0 34.3278 0 33.4984V32.2597H35V33.4984C35 34.3278 34.3278 35 33.4984 35Z" fill="#49A9DA"/>
<path d="M32.1831 32.2598V33.4985C32.1831 34.3278 31.5109 35.0001 30.6815 35.0001H33.4984C34.3277 35.0001 35 34.3278 35 33.4985V32.2598H32.1831Z" fill="#2D97CD"/>
<path d="M6.00403 18.0666H28.9959V32.2598H6.00403V18.0666Z" fill="#F3F3F3"/>
<path d="M23.0197 1.69764C18.5269 -1.35139 12.4134 -0.181625 9.36493 4.31041C6.31644 8.80244 7.48737 14.9157 11.9802 17.9647C13.2594 18.8329 14.6702 19.3586 16.1041 19.5633L17.4878 21.6992L18.9432 19.5547C21.568 19.1649 24.0276 17.7205 25.6349 15.3519C28.6835 10.8599 27.5126 4.74668 23.0197 1.69764Z" fill="#FFD54D"/>
<path d="M23.0198 1.69763C20.9083 0.264616 18.4386 -0.236459 16.0975 0.101237C17.5251 0.307887 18.9291 0.833161 20.2029 1.69763C24.6958 4.74667 25.8667 10.8599 22.8181 15.3519C21.2107 17.7205 18.7511 19.1649 16.1264 19.5547L16.1122 19.5756L17.488 21.6992L18.9433 19.5547C21.5681 19.165 24.0278 17.7206 25.6351 15.352C28.6836 10.8599 27.5127 4.74667 23.0198 1.69763Z" fill="#FFC919"/>
<path d="M17.5 15.7611C16.7799 15.7611 16.1962 15.1774 16.1962 14.4573V10.1845C16.1962 9.46443 16.7799 8.88071 17.5 8.88071C18.2201 8.88071 18.8038 9.46443 18.8038 10.1845V14.4573C18.8038 15.1774 18.2201 15.7611 17.5 15.7611Z" fill="#565656"/>
<path d="M17.5 6.96828C16.7799 6.96828 16.1962 6.38456 16.1962 5.66446C16.1962 4.94436 16.7799 4.36064 17.5 4.36064C18.2201 4.36064 18.8038 4.94436 18.8038 5.66446C18.8038 6.38449 18.2201 6.96828 17.5 6.96828Z" fill="#565656"/>
<path d="M9.1789 22.8673H13.1078C13.3995 22.8673 13.6359 22.6308 13.6359 22.3391C13.6359 22.0475 13.3995 21.811 13.1078 21.811H9.1789C8.88721 21.811 8.65076 22.0475 8.65076 22.3391C8.65069 22.6308 8.88721 22.8673 9.1789 22.8673Z" fill="#565656"/>
<path d="M21.8923 22.8673H25.8212C26.1129 22.8673 26.3493 22.6308 26.3493 22.3391C26.3493 22.0475 26.1129 21.811 25.8212 21.811H21.8923C21.6006 21.811 21.3641 22.0475 21.3641 22.3391C21.3641 22.6308 21.6005 22.8673 21.8923 22.8673Z" fill="#565656"/>
<path d="M25.8211 24.8742H9.1789C8.88721 24.8742 8.65076 25.1106 8.65076 25.4023C8.65076 25.694 8.88721 25.9305 9.1789 25.9305H25.8212C26.1129 25.9305 26.3493 25.694 26.3493 25.4023C26.3493 25.1106 26.1128 24.8742 25.8211 24.8742Z" fill="#565656"/>
<path d="M22.3 27.9374H12.7C12.4083 27.9374 12.1719 28.1738 12.1719 28.4655C12.1719 28.7572 12.4083 28.9937 12.7 28.9937H22.3001C22.5918 28.9937 22.8282 28.7572 22.8282 28.4655C22.8282 28.1738 22.5917 27.9374 22.3 27.9374Z" fill="#565656"/>
</g>
<defs>
<clipPath id="clip0_36_25">
<rect width="35" height="35" fill="white"/>
</clipPath>
</defs>
</svg>
