<svg xmlns="http://www.w3.org/2000/svg" version="1.1" xmlns:xlink="http://www.w3.org/1999/xlink" xmlns:svgjs="http://svgjs.com/svgjs" width="512" height="512" x="0" y="0" viewBox="0 0 512 512" style="enable-background:new 0 0 512 512" xml:space="preserve" class=""><g><g xmlns="http://www.w3.org/2000/svg"><path d="m476.703 162.421h-462.99c-7.574 0-13.713 6.139-13.713 13.712v24.155l10 86.974-10 20.331v130.052l35.297 62.866h238.616l166.523-68.821 71.564-68.638v-137.765z" fill="#88f2a9" data-original="#88f2a9" class=""></path><path d="m506.573 201.374-29.871-38.953h-9.321c7.573 0 13.713 6.139 13.713 13.713v213.01l30.906-26.092v-137.765z" fill="#80e29e" data-original="#80e29e"></path><path d="m512 363.052-238.087 137.46h224.374c7.573 0 13.713-6.139 13.713-13.713z" fill="#62a4fb" data-original="#62a4fb"></path><path d="m512 486.799v-123.747l-30.905 17.843v105.904c0 7.573-6.139 13.713-13.713 13.713h30.905c7.574 0 13.713-6.14 13.713-13.713z" fill="#5392f9" data-original="#5392f9"></path><path d="m512 176.133c0-7.573-6.139-13.713-13.713-13.713h-21.585l-373.923 215.886-102.779-178.018v107.305l56.314 97.539-56.314 32.513v49.154c0 7.573 6.139 13.713 13.713 13.713h21.585l476.702-275.225z" fill="#ddebfd" data-original="#ddebfd"></path><path d="m498.287 162.421h-21.585l-2.829 1.634c4.299 2.315 7.221 6.855 7.221 12.079v66.997l30.906-17.844v-49.154c0-7.573-6.139-13.712-13.713-13.712z" fill="#bed9fd" data-original="#bed9fd"></path><g><circle cx="256" cy="331.466" fill="#db387e" r="102.826" data-original="#db387e"></circle><path d="m296.53 297.84-90.377 1.864c-10.127.209-13.686 13.526-5.014 18.76l33.059 19.951c2.972 1.794 4.816 4.987 4.883 8.458l.748 38.605c.196 10.127 13.509 13.703 18.753 5.037l46.803-77.336c4.126-6.816-.889-15.503-8.855-15.339z" fill="#ddebfd" data-original="#ddebfd"></path></g><g fill="#f7e365"><path d="m179.121 120.806c-2.603 0-5.143-1.315-6.6-3.698-9.361-15.317-14.309-32.939-14.309-50.961s4.948-35.643 14.309-50.961c2.226-3.641 6.983-4.787 10.622-2.563 3.641 2.225 4.789 6.98 2.563 10.622-7.877 12.89-12.041 27.725-12.041 42.902s4.164 30.013 12.041 42.902c2.225 3.641 1.077 8.397-2.563 10.622-1.258.769-2.649 1.135-4.022 1.135z" fill="#f7e365" data-original="#f7e365"></path><path d="m332.879 120.806c-1.374 0-2.765-.366-4.022-1.135-3.641-2.225-4.789-6.98-2.563-10.622 7.877-12.89 12.041-27.725 12.041-42.902s-4.164-30.013-12.041-42.902c-2.225-3.641-1.077-8.397 2.563-10.622 3.641-2.225 8.396-1.077 10.622 2.563 9.361 15.317 14.309 32.939 14.309 50.961s-4.948 35.643-14.309 50.961c-1.457 2.383-3.997 3.698-6.6 3.698z" fill="#f7e365" data-original="#f7e365"></path><path d="m208.066 94.077c-3.013 0-5.876-1.774-7.122-4.724-3.103-7.354-4.676-15.161-4.676-23.205 0-8.058 1.574-15.867 4.678-23.209 1.662-3.931 6.196-5.768 10.126-4.108 3.93 1.661 5.769 6.195 4.108 10.125-2.295 5.428-3.459 11.212-3.459 17.192 0 5.969 1.164 11.756 3.461 17.197 1.659 3.932-.183 8.464-4.115 10.123-.98.413-1.999.609-3.001.609z" fill="#f7e365" data-original="#f7e365"></path><path d="m303.934 94.077c-1.002 0-2.02-.196-3.001-.61-3.932-1.659-5.774-6.191-4.115-10.123 2.297-5.442 3.461-11.228 3.461-17.197 0-5.98-1.164-11.764-3.459-17.192-1.661-3.93.178-8.463 4.108-10.125 3.926-1.661 8.464.176 10.126 4.108 3.104 7.342 4.678 15.151 4.678 23.209 0 8.044-1.573 15.852-4.676 23.205-1.246 2.951-4.109 4.725-7.122 4.725z" fill="#f7e365" data-original="#f7e365"></path></g><path d="m256 204.368c-4.268 0-7.726-3.459-7.726-7.726v-124.287c0-4.267 3.459-7.726 7.726-7.726 4.268 0 7.726 3.459 7.726 7.726v124.287c0 4.267-3.458 7.726-7.726 7.726z" fill="#62a4fb" data-original="#62a4fb"></path><circle cx="256" cy="66.145" fill="#db387e" r="21" data-original="#db387e"></circle></g></g></svg>