<svg width="10" height="10" viewBox="0 0 10 10" fill="none" xmlns="http://www.w3.org/2000/svg">
<path d="M5.00001 0C3.00304 0 1.37839 1.62465 1.37839 3.6216C1.37839 6.09988 4.61938 9.73815 4.75737 9.89182C4.88698 10.0362 5.11327 10.0359 5.24265 9.89182C5.38064 9.73815 8.62163 6.09988 8.62163 3.6216C8.62159 1.62465 6.99696 0 5.00001 0ZM5.00001 5.44373C3.99528 5.44373 3.1779 4.62633 3.1779 3.6216C3.1779 2.61688 3.9953 1.79949 5.00001 1.79949C6.00472 1.79949 6.8221 2.61689 6.8221 3.62162C6.8221 4.62635 6.00472 5.44373 5.00001 5.44373Z" fill="#5F5E7B"/>
</svg>
