<svg width="13" height="14" viewBox="0 0 13 14" fill="none" xmlns="http://www.w3.org/2000/svg">
<path fill-rule="evenodd" clip-rule="evenodd" d="M6.45452 2.125C4.07052 2.125 2.15149 4.13075 2.15149 6.58774C2.15149 7.8075 2.6239 9.11423 3.37972 10.1184C4.1338 11.1202 5.21437 11.875 6.45452 11.875C7.69467 11.875 8.77524 11.1202 9.52932 10.1184C10.2851 9.11423 10.7575 7.8075 10.7575 6.58774C10.7575 4.13075 8.83852 2.125 6.45452 2.125ZM4.93002 6.25C4.93002 5.39396 5.61256 4.7 6.45452 4.7C7.29648 4.7 7.97902 5.39396 7.97902 6.25C7.97902 7.10604 7.29648 7.8 6.45452 7.8C5.61256 7.8 4.93002 7.10604 4.93002 6.25ZM6.45452 5.3C5.93848 5.3 5.52015 5.72533 5.52015 6.25C5.52015 6.77467 5.93848 7.2 6.45452 7.2C6.97056 7.2 7.38889 6.77467 7.38889 6.25C7.38889 5.72533 6.97056 5.3 6.45452 5.3Z" fill="#5F5E7B"/>
</svg>
