<svg xmlns="http://www.w3.org/2000/svg" version="1.1" xmlns:xlink="http://www.w3.org/1999/xlink" xmlns:svgjs="http://svgjs.com/svgjs" width="512" height="512" x="0" y="0" viewBox="0 0 512 512" style="enable-background:new 0 0 512 512" xml:space="preserve" class=""><g><g xmlns="http://www.w3.org/2000/svg"><path d="m484.269 15.165v292.283l-179.024 17.939-162.913-17.939v-292.283c-.001-8.376 6.788-15.165 15.153-15.165h311.619c8.376 0 15.165 6.789 15.165 15.165z" fill="#eaf6ff" data-original="#eaf6ff" class=""></path><path d="m337.404 322.164-80.476-14.716c10.384 0 20.047-5.305 25.631-14.062l21.469-33.687c2.792-4.358 7.613-7.005 12.785-7.005l52.02-.001z" fill="#d8ecfe" data-original="#d8ecfe" class=""></path><path d="m469.107 0h-52.015c8.374 0 15.162 6.788 15.162 15.162v292.284h52.015v-292.284c0-8.374-6.788-15.162-15.162-15.162z" fill="#d8ecfe" data-original="#d8ecfe" class=""></path><path d="m356.048 259.704-21.473 33.683c-5.583 8.757-15.25 14.059-25.636 14.059h-200.687c-8.374 0-15.162 6.788-15.162 15.162v174.231c0 8.374 6.788 15.162 15.162 15.162h387.89c8.374 0 15.162-6.788 15.162-15.162v-228.985c0-8.374-6.788-15.162-15.162-15.162h-127.31c-5.179 0-10 2.644-12.784 7.012z" fill="#ffe177" data-original="#ffe177"></path><path d="m496.142 252.692h-52.015c8.374 0 15.162 6.788 15.162 15.162v228.984c0 8.374-6.788 15.162-15.162 15.162h52.015c8.374 0 15.162-6.788 15.162-15.162v-228.984c0-8.373-6.788-15.162-15.162-15.162z" fill="#ffd15b" data-original="#ffd15b"></path><g><g><circle cx="376.415" cy="80.965" fill="#fed2a4" r="22.396" data-original="#fed2a4"></circle><path d="m376.415 58.569c-3.19 0-6.222.671-8.969 1.874 7.903 3.459 13.427 11.344 13.427 20.523s-5.524 17.064-13.427 20.523c2.747 1.202 5.779 1.874 8.969 1.874 12.369 0 22.396-10.027 22.396-22.396.001-12.371-10.027-22.398-22.396-22.398z" fill="#ffbd86" data-original="#ffbd86"></path><path d="m352.341 138.887 24.074-35.526c17.429 0 31.558 14.129 31.558 31.558v53.825c0 4.284-3.473 7.757-7.757 7.757h-55.36l-5.1-17.111 5.1-14.447c.001-8.694 2.608-18.859 7.485-26.056z" fill="#b3dafe" data-original="#b3dafe"></path><path d="m376.415 103.361-4.316 6.369c7.622 5.761 12.55 14.898 12.55 25.189v53.825c0 4.284-3.473 7.757-7.757 7.757h23.325c4.284 0 7.757-3.473 7.757-7.757v-53.824c0-17.43-14.129-31.559-31.559-31.559z" fill="#92d2fc" data-original="#92d2fc" class=""></path></g><g><circle cx="313.299" cy="115.447" fill="#ffe5c2" r="17.938" data-original="#ffe5c2"></circle><path d="m313.299 97.509c-3.271 0-6.328.89-8.969 2.419 5.356 3.103 8.969 8.883 8.969 15.519s-3.613 12.416-8.969 15.519c2.641 1.53 5.698 2.419 8.969 2.419 9.907 0 17.938-8.031 17.938-17.938s-8.032-17.938-17.938-17.938z" fill="#fed2a4" data-original="#fed2a4"></path><path d="m313.298 133.385c17.429 0 31.558 14.129 31.558 31.558v31.558h-63.116l-5.796-17.498 5.796-14.06c0-17.429 14.129-31.558 31.558-31.558z" fill="#d9b1ee" data-original="#d9b1ee" class=""></path><path d="m313.299 133.385c-4.121 0-8.054.798-11.663 2.235 11.654 4.64 19.896 16.015 19.896 29.323v31.558h23.325v-31.558c0-17.429-14.129-31.558-31.558-31.558z" fill="#cb97e7" data-original="#cb97e7" class=""></path></g><g><circle cx="250.182" cy="80.965" fill="#fed2a4" r="22.396" data-original="#fed2a4"></circle><path d="m250.182 58.569c-3.19 0-6.222.671-8.969 1.874 7.903 3.459 13.427 11.344 13.427 20.523s-5.524 17.064-13.427 20.523c2.747 1.202 5.779 1.874 8.969 1.874 12.369 0 22.396-10.027 22.396-22.396 0-12.371-10.027-22.398-22.396-22.398z" fill="#ffbd86" data-original="#ffbd86"></path><path d="m250.182 103.361 24.074 35.526c4.877 7.197 7.484 15.692 7.484 24.386v33.229h-55.36c-4.284 0-7.757-3.473-7.757-7.757v-53.825c0-17.43 14.13-31.559 31.559-31.559z" fill="#8795de" data-original="#8795de" class=""></path><path d="m274.256 138.887-24.074-35.526c-7.139 0-13.721 2.373-19.009 6.369l19.758 29.156c4.877 7.197 7.484 15.692 7.484 24.386v33.229h23.325v-33.229c0-8.693-2.607-17.188-7.484-24.385z" fill="#7289db" data-original="#7289db"></path></g></g><g><path d="m447.285 315.172h-38.671c-4.267 0-7.726-3.459-7.726-7.726s3.459-7.726 7.726-7.726h38.671c4.267 0 7.726 3.459 7.726 7.726s-3.459 7.726-7.726 7.726z" fill="#ffd15b" data-original="#ffd15b"></path></g><g><path d="m248.985 253.028h-22.635c-4.267 0-7.726-3.459-7.726-7.726s3.459-7.726 7.726-7.726h22.635c4.267 0 7.726 3.459 7.726 7.726s-3.459 7.726-7.726 7.726z" fill="#b3dafe" data-original="#b3dafe"></path></g><g><path d="m286.247 281.81h-59.897c-4.267 0-7.726-3.459-7.726-7.726s3.459-7.726 7.726-7.726h59.897c4.267 0 7.726 3.459 7.726 7.726 0 4.266-3.459 7.726-7.726 7.726z" fill="#b3dafe" data-original="#b3dafe"></path></g><g><circle cx="99.833" cy="255.269" fill="#26a6fe" r="99.137" data-original="#26a6fe"></circle><path d="m99.833 156.132c-5.697 0-11.28.487-16.715 1.41 46.791 7.946 82.422 48.672 82.422 97.726s-35.631 89.78-82.422 97.727c5.435.923 11.018 1.41 16.715 1.41 54.752 0 99.137-44.385 99.137-99.137-.001-54.751-44.386-99.136-99.137-99.136z" fill="#0593fc" data-original="#0593fc"></path><path d="m141.043 255.269c0 65.706-57.926 63.554-57.926 63.554-28.193-7.394-48.991-33.042-48.991-63.554s20.798-56.167 48.991-63.561c0 0 57.926 0 57.926 63.561z" fill="#eaf6ff" data-original="#eaf6ff" class=""></path><path d="m99.833 189.562c-5.777 0-11.377.752-16.715 2.152 28.192 7.395 48.991 33.043 48.991 63.554 0 30.512-20.8 56.159-48.991 63.554 5.338 1.4 10.938 2.152 16.715 2.152 36.289 0 65.706-29.418 65.706-65.706s-29.418-65.706-65.706-65.706z" fill="#d8ecfe" data-original="#d8ecfe" class=""></path><path d="m125.592 267.759c0 14.227-11.533 25.76-25.76 25.76s-25.76-11.533-25.76-25.76c0-10.306 13.519-32.309 20.97-43.653 2.266-3.45 7.315-3.45 9.581 0 7.45 11.344 20.969 33.347 20.969 43.653z" fill="#fe646f" data-original="#fe646f"></path><path d="m95.042 224.107c-2.308 3.514-5.199 8.052-8.09 12.948 6.44 10.907 12.88 23.592 12.88 30.705 0 9.533-5.183 17.85-12.88 22.305 3.79 2.193 8.186 3.455 12.88 3.455 14.227 0 25.76-11.533 25.76-25.76 0-10.306-13.519-32.309-20.97-43.653-2.265-3.451-7.314-3.451-9.58 0z" fill="#fd4755" data-original="#fd4755"></path></g><g><path d="m357.912 416.394c.391 8.221-6.16 15.01-14.299 15.01h-19.965c-3.935 0-7.129 3.194-7.129 7.129v19.563c0 7.706-5.924 14.34-13.629 14.711-3.338.154-6.449-.834-8.952-2.617-3.667-2.586-6.057-6.861-6.057-11.693v-19.965c0-3.935-3.194-7.129-7.129-7.129h-19.965c-8.138 0-14.69-6.789-14.309-15.01.361-7.706 6.995-13.629 14.711-13.629h19.563c3.935 0 7.129-3.194 7.129-7.129v-19.563c0-4.893 2.38-9.354 6.099-12.053 2.132-1.556 4.718-2.524 7.531-2.658 8.221-.381 15.01 6.171 15.01 14.309v19.965c0 3.935 3.194 7.129 7.129 7.129h19.563c7.704.001 14.338 5.924 14.699 13.63z" fill="#fe646f" data-original="#fe646f"></path><g fill="#fd4755"><path d="m323.648 402.765h-14.907c-4.842 0-8.767-3.925-8.767-8.777v-18.317c0-4.801-2.38-9.045-5.996-11.651 2.132-1.556 4.718-2.524 7.531-2.658 8.221-.381 15.01 6.171 15.01 14.309v19.965c0 3.935 3.194 7.129 7.129 7.129z" fill="#fd4755" data-original="#fd4755"></path><path d="m343.613 402.765h-16.546c7.908 0 14.319 6.411 14.319 14.319s-6.411 14.319-14.319 14.319h16.546c7.908 0 14.319-6.411 14.319-14.319.001-7.909-6.41-14.319-14.319-14.319z" fill="#fd4755" data-original="#fd4755"></path><path d="m323.648 431.404c-3.935 0-7.129 3.194-7.129 7.129v19.563c0 7.706-5.924 14.34-13.629 14.711-3.338.154-6.449-.834-8.952-2.617-.01-.01-.01-.01-.01-.021 3.647-2.586 6.047-6.851 6.047-11.672v-18.317c0-4.852 3.925-8.777 8.767-8.777h14.906z" fill="#fd4755" data-original="#fd4755"></path></g></g></g></g></svg>