<svg width="10" height="10" viewBox="0 0 10 10" fill="none" xmlns="http://www.w3.org/2000/svg">
<g clip-path="url(#clip0_34_53)">
<path d="M9.22257 0.77086C8.19417 -0.256974 6.52138 -0.256974 5.49297 0.77086L3.31863 2.9452L5.78727 5.41384C6.29536 4.99073 6.93952 4.72581 7.65079 4.72581C8.05876 4.72581 8.44698 4.81056 8.80023 4.96188L9.22257 4.50048C10.2507 3.47235 10.2507 1.79928 9.22257 0.77086Z" fill="#5F5E7B"/>
<path d="M5.37636 5.83158L2.90429 3.35953L0.776205 5.4897C-0.251899 6.51781 -0.251899 8.1909 0.776205 9.21929C1.80458 10.2471 3.49691 10.2667 4.52532 9.23881L4.95673 8.80533C4.8054 8.45209 4.72065 8.06386 4.72065 7.65589C4.72067 6.96289 4.97263 6.3338 5.37636 5.83158Z" fill="#5F5E7B"/>
<path d="M5.3067 7.65593C5.3067 8.85015 6.20305 9.82478 7.35778 9.97046V5.34138C6.20305 5.48706 5.3067 6.46165 5.3067 7.65593Z" fill="#5F5E7B"/>
<path d="M7.94379 5.34138V9.97046C9.09851 9.82478 9.99486 8.85015 9.99486 7.65591C9.99486 6.46167 9.09853 5.48706 7.94379 5.34138Z" fill="#5F5E7B"/>
</g>
<defs>
<clipPath id="clip0_34_53">
<rect width="10" height="10" fill="white"/>
</clipPath>
</defs>
</svg>
