<svg xmlns="http://www.w3.org/2000/svg" version="1.1" xmlns:xlink="http://www.w3.org/1999/xlink" xmlns:svgjs="http://svgjs.com/svgjs" width="512" height="512" x="0" y="0" viewBox="0 0 51 58" style="enable-background:new 0 0 512 512" xml:space="preserve" class=""><g><g xmlns="http://www.w3.org/2000/svg" id="Page-1" fill="none" fill-rule="evenodd"><g id="066---Smartwatch-Reminder" fill-rule="nonzero"><path id="Shape" d="m10 51h16v4c0 1.6568542-1.3431458 3-3 3h-10c-1.6568542 0-3-1.3431458-3-3z" fill="#3b97d3" data-original="#3b97d3"></path><path id="Shape" d="m13 0h10c1.6568542 0 3 1.34314575 3 3v4h-16v-4c0-1.65685425 1.3431458-3 3-3z" fill="#3b97d3" data-original="#3b97d3"></path><path id="Shape" d="m35 31h3c1.1045695 0 2 .8954305 2 2v4c0 1.1045695-.8954305 2-2 2h-3z" fill="#bdc3c7" data-original="#bdc3c7" class=""></path><path id="Shape" d="m35 19h3c1.1045695 0 2 .8954305 2 2v4c0 1.1045695-.8954305 2-2 2h-3z" fill="#bdc3c7" data-original="#bdc3c7" class=""></path><path id="Shape" d="m36 17v24c-.0028075 3.0456551-2.2848629 5.6070581-5.31 5.96-.2288903.0282699-.4593763.0416314-.69.04h-24c-.23062374.0016314-.46110966-.0117301-.69-.04-3.02513714-.3529419-5.30719252-2.9143449-5.31-5.96v-24c.00280748-3.0456551 2.28486286-5.6070581 5.31-5.96.22889034-.0282699.45937626-.0416314.69-.04h24c.2306237-.0016314.4611097.0117301.69.04 3.0251371.3529419 5.3071925 2.9143449 5.31 5.96z" fill="#393f4a" data-original="#393f4a" class=""></path><path id="Shape" d="m33.91 12.45c-.67 2.9-5.58 19.37-32.79 32.03-.08236871-.1093697-.1591341-.222849-.23-.34-.58487028-.9426655-.89324506-2.0306394-.89-3.14v-24c.00280748-3.0456551 2.28486286-5.6070581 5.31-5.96.22889034-.0282699.45937626-.0416314.69-.04h24c.2306237-.0016314.4611097.0117301.69.04 1.1010804.1295382 2.14559.5584097 3.02 1.24z" fill="#464f5d" data-original="#464f5d" class=""></path><path id="Shape" d="m30.7 47-2.13 3.54c-.5389718.906118-1.5157043 1.4609932-2.57 1.46h-16c-1.05429572.0009932-2.03102816-.553882-2.57-1.46l-2.13-3.54.01-.04c.22889034.0282699.45937626.0416314.69.04h24c.2306237.0016314.4611097-.0117301.69-.04z" fill="#95a5a5" data-original="#95a5a5" class=""></path><path id="Shape" d="m30.7 11-.01.04c-.2288903-.0282699-.4593763-.0416314-.69-.04h-24c-.23062374-.0016314-.46110966.0117301-.69.04l-.01-.04 2.13-3.54c.53897184-.90611799 1.51570428-1.46099323 2.57-1.46h16c1.0542957-.00099323 2.0310282.55388201 2.57 1.46z" fill="#95a5a5" data-original="#95a5a5" class=""></path><path id="Shape" d="m23.78 34.78-4.82 4.82c-2.0649951 2.0649951-5.0747911 2.8714675-7.8956268 2.1156268-2.82083581-.7558406-5.02415937-2.9591642-5.78000003-5.78-.75584067-2.8208357.05063172-5.8306317 2.11562683-7.8956268l4.82-4.81 7.78 3.77z" fill="#ff5364" data-original="#ff5364"></path><path id="Shape" d="m28.56 30-4.78 4.78-11.56-11.55 4.78-4.78c2.0564324-2.0983213 5.0810714-2.9310686 7.921721-2.181018 2.8406497.7500506 5.0599319 2.9674129 5.8124406 5.8074124.7525086 2.8399995-.0776208 5.865358-2.1741616 7.9236056z" fill="#f3d55b" data-original="#f3d55b" class=""></path><path id="Shape" d="m10.233 37.775c-.26233988-.0011046-.51373936-.1052558-.7-.29-.97560088-.9660011-1.52591236-2.2810331-1.52910305-3.6539661-.00319068-1.372933.54100264-2.6905087 1.51210305-3.6610339.39393268-.3776526 1.0178963-.3697467 1.402134.0177657s.3868481 1.0115207.005866 1.4022343c-.5922319.595116-.9232882 1.4014495-.9200988 2.2410276.0031895.8395782.3403626 1.6433732.9370988 2.2339724.2871614.2848091.3744903.714552.2212679 1.0888524s-.5168238.6194518-.9212679.6211476z" fill="#ffffff" data-original="#ffffff"></path><path id="Shape" d="m12.22 23.23-.01-.01" fill="#ff5364" data-original="#ff5364"></path><path id="Shape" d="m51 3.5v14c0 1.9329966-1.5670034 3.5-3.5 3.5h-11.9l-7.814 4.423c-.3795781.2128582-.8532379.1557928-1.1713992-.1411273-.3181613-.29692-.4077664-.7655147-.2216008-1.1588727l1.507-3.123h-1.4c-1.9329966 0-3.5-1.5670034-3.5-3.5v-14c0-1.93299662 1.5670034-3.5 3.5-3.5h21c1.9329966 0 3.5 1.56700338 3.5 3.5z" fill="#65ddb9" data-original="#65ddb9" class=""></path><g fill="#fff"><circle id="Oval" cx="29" cy="10" r="2" fill="#ffffff" data-original="#ffffff"></circle><circle id="Oval" cx="37" cy="10" r="2" fill="#ffffff" data-original="#ffffff"></circle><circle id="Oval" cx="45" cy="10" r="2" fill="#ffffff" data-original="#ffffff"></circle></g></g></g></g></svg>