<svg width="30" height="30" viewBox="0 0 30 30" fill="none" xmlns="http://www.w3.org/2000/svg">
<g clip-path="url(#clip0_233_47)">
<path d="M30 15.0001C30 15.5596 29.9694 16.1119 29.9088 16.6556C29.8408 17.2788 29.7343 17.8905 29.5916 18.4886C28.2808 23.9951 23.9333 28.3237 18.4169 29.6088C17.842 29.7429 17.2542 29.8439 16.6561 29.9088C16.1125 29.9694 15.5596 30 15 30C6.71572 30 0 23.2843 0 15C0 6.71572 6.71572 0 15 0C23.2843 0 30 6.71572 30 15.0001Z" fill="#8989A0"/>
<path d="M29.9086 16.6556C29.8407 17.2788 29.7341 17.8905 29.5915 18.4886C28.2807 23.9951 23.9331 28.3237 18.4167 29.6088C17.8418 29.7429 17.2541 29.8439 16.6559 29.9088C10.7967 29.1827 6.26123 24.1862 6.26123 18.1305C6.26123 11.5758 11.5755 6.26151 18.1308 6.26151C24.186 6.26145 29.1825 10.797 29.9086 16.6556Z" fill="#5F5E7B"/>
<path d="M29.5916 18.4886C28.2808 23.9951 23.9333 28.3237 18.4169 29.6088L13.293 19.5258L19.4724 13.3464L29.5916 18.4886Z" fill="#FFF79E"/>
<path d="M14.3364 20.2758C17.6166 20.2758 20.2758 17.6166 20.2758 14.3364C20.2758 11.0561 17.6166 8.39695 14.3364 8.39695C11.0561 8.39695 8.39697 11.0561 8.39697 14.3364C8.39697 17.6166 11.0561 20.2758 14.3364 20.2758Z" fill="#FCE45B"/>
<path d="M18.2138 9.19371C17.0956 8.07556 15.461 7.78962 14.078 8.33455L6.25595 0.512343C5.57281 -0.170801 4.46527 -0.170801 3.78212 0.512343L0.512358 3.78211C-0.170786 4.46525 -0.170786 5.57279 0.512358 6.25593L8.33451 14.0781C7.78959 15.4611 8.07552 17.0957 9.19367 18.2138L11.5399 20.5601L20.5601 11.5399L18.2138 9.19371Z" fill="#2D97CD"/>
<path d="M11.6831 21.3342C11.4032 21.0543 11.4032 20.6004 11.6831 20.3205L20.3205 11.683C20.6004 11.4031 21.0543 11.4031 21.3342 11.683C21.6141 11.9629 21.6141 12.4168 21.3342 12.6967L12.6968 21.3342C12.4169 21.6141 11.963 21.6141 11.6831 21.3342Z" fill="#73D4FF"/>
<path d="M13.7828 19.2345C13.5029 18.9546 13.5029 18.5007 13.7828 18.2208L11.6831 20.3205C11.4032 20.6004 11.4032 21.0543 11.6831 21.3342C11.963 21.6141 12.4168 21.6141 12.6968 21.3342L14.7965 19.2346C14.5165 19.5145 14.0627 19.5145 13.7828 19.2345Z" fill="#079ACC"/>
<path d="M10.6754 11.7376L14.0783 8.33467L13.1149 7.37133L10.4332 10.053C9.31819 11.1681 7.51046 11.1681 6.39542 10.053L1.55558 5.21321C0.872431 4.53006 0.671103 3.62391 1.1061 3.18891L0.512314 3.7827C-0.170771 4.46579 -0.170771 5.57327 0.512314 6.25635L8.33446 14.0784C7.78942 15.4615 8.07571 17.0957 9.19374 18.2137L11.5399 20.56L13.1779 18.922L10.8317 16.5758C10.6905 16.4345 10.5587 16.2891 10.4365 16.1405C9.36629 14.8387 9.48377 12.9292 10.6754 11.7376Z" fill="#217AA8"/>
</g>
<defs>
<clipPath id="clip0_233_47">
<rect width="30" height="30" fill="white"/>
</clipPath>
</defs>
</svg>
