<svg xmlns="http://www.w3.org/2000/svg" version="1.1" xmlns:xlink="http://www.w3.org/1999/xlink" xmlns:svgjs="http://svgjs.com/svgjs" width="512" height="512" x="0" y="0" viewBox="0 0 512 512" style="enable-background:new 0 0 512 512" xml:space="preserve" class=""><g><g xmlns="http://www.w3.org/2000/svg"><path d="m331.149 512h-150.313c-8.63 0-15.889-6.47-16.877-15.044l-29.692-258.612c-.833-7.23 4.82-13.572 12.098-13.572h219.257c7.278 0 12.931 6.342 12.098 13.572l-29.692 258.612c-.99 8.574-8.249 15.044-16.879 15.044z" fill="#eaf6ff" data-original="#eaf6ff" class=""></path><path d="m365.621 224.772h-75.18c7.278 0 12.931 6.342 12.098 13.572l-29.692 258.612c-.989 8.574-8.248 15.044-16.878 15.044h75.18c8.63 0 15.889-6.47 16.877-15.044l29.692-258.612c.834-7.23-4.819-13.572-12.097-13.572z" fill="#d8ecfe" data-original="#d8ecfe"></path><path d="m329.837 312.327c6.042 0 10.736 5.263 10.049 11.266l-17.484 152.653c-.52 4.515-4.344 7.923-8.889 7.923h-115.041c-4.545 0-8.368-3.408-8.889-7.923l-17.484-152.653c-.688-6.003 4.007-11.266 10.049-11.266z" fill="#b3dafe" data-original="#b3dafe"></path><g fill="#92d2fc"><path d="m294.044 312.327-19.73 171.842h39.198c4.545 0 8.368-3.408 8.889-7.923l17.484-152.653c.688-6.003-4.007-11.266-10.049-11.266z" fill="#92d2fc" data-original="#92d2fc"></path><circle cx="233.612" cy="440.383" r="7.709" fill="#92d2fc" data-original="#92d2fc"></circle><circle cx="225.903" cy="390.215" r="7.709" fill="#92d2fc" data-original="#92d2fc"></circle><circle cx="264.284" cy="407.695" r="7.709" fill="#92d2fc" data-original="#92d2fc"></circle></g><g><path d="m379.88 15.453v32.4c0 8.19-6.191 15.268-14.361 15.824-4.698.33-8.984-1.453-12.023-4.492l-.062-.062c-1.71-1.731-4.018-2.503-6.243-2.277-1.597.165-3.152.855-4.399 2.102l-71.128 71.139c-4.656 4.657-12.208 4.657-16.864 0l-8.262-8.272h-.011l-8.489-8.499c-.979-.979-2.38-1.267-3.616-.886h-.01c-.536.165-1.041.464-1.463.886l-74.451 74.421c-6.037 6.027-15.813 6.027-21.85 0-2.74-2.74-4.244-6.264-4.492-9.849-.299-4.306 1.195-8.715 4.492-12.012l90.419-90.378c4.646-4.657 12.198-4.657 16.854 0l16.761 16.761c1.401 1.411 3.678 1.411 5.089 0l55.17-55.171c2.905-2.915 2.926-7.665-.041-10.518-3.091-2.967-4.945-7.201-4.718-11.868.392-8.315 7.552-14.702 15.876-14.702h32.369c8.53 0 15.453 6.923 15.453 15.453z" fill="#26a6fe" data-original="#26a6fe"></path><g fill="#0593fc"><path d="m234.413 112.43c-.536.165-1.041.464-1.463.886l-74.451 74.421c-6.037 6.027-15.813 6.027-21.85 0-2.74-2.74-4.244-6.264-4.492-9.849.01 0 .01-.01.01-.01 5.625 2.369 12.362 1.277 16.947-3.297l57.422-57.422c2.926-2.926 6.902-4.574 11.054-4.574z" fill="#0593fc" data-original="#0593fc"></path><path d="m364.426 0h-22.57c8.534 0 15.453 6.919 15.453 15.453v29.685c0 4.832-1.795 9.394-4.868 12.865.333.41.681.808 1.054 1.182 3.04 3.04 7.329 4.819 12.024 4.495 8.165-.563 14.359-7.635 14.359-15.819 0-8.375 0-21.88 0-32.413.001-8.535-6.918-15.448-15.452-15.448z" fill="#0593fc" data-original="#0593fc"></path><path d="m347.192 56.846c-1.597.165-3.152.855-4.399 2.102l-71.128 71.139c-4.656 4.657-12.208 4.657-16.864 0l-8.262-8.272c4.378 1.937 9.663 1.123 13.259-2.462l58.735-58.715c2.689-2.689 6.336-4.193 10.127-4.193z" fill="#0593fc" data-original="#0593fc"></path></g></g></g></g></svg>